<svg width="30" height="31" viewBox="0 0 30 31" fill="none" xmlns="http://www.w3.org/2000/svg">
    <path
        d="M15 0.9375C6.7 0.9375 0 7.6375 0 15.9375C0 24.2375 6.7 30.9375 15 30.9375C23.3 30.9375 30 24.2375 30 15.9375C30 7.6375 23.3 0.9375 15 0.9375ZM24 21.5375C24 22.0375 23.6 22.4375 23.1 22.4375H7C6.4 22.4375 6 21.9375 6 21.4375V11.7375L15 16.4375L24 11.7375V21.5375ZM24 10.6375L15 15.3375L6 10.6375V10.4375C6 9.9375 6.4 9.4375 7 9.4375H23C23.6 9.4375 24 9.9375 24 10.4375V10.6375Z"
        fill="#4f46e5" />
</svg>