<svg width="30" height="30" viewBox="0 0 30 30" fill="none" xmlns="http://www.w3.org/2000/svg">
    <path
        d="M15 0.678284C6.7125 0.678284 2.18932e-06 7.39078 2.18932e-06 15.6783C-0.00169914 18.8272 0.988222 21.8967 2.82933 24.4513C4.67043 27.0059 7.26922 28.9159 10.257 29.9103C11.007 30.0408 11.2875 29.5908 11.2875 29.1963C11.2875 28.8408 11.268 27.6603 11.268 26.4033C7.5 27.0978 6.525 25.4853 6.225 24.6408C6.0555 24.2088 5.325 22.8783 4.6875 22.5213C4.1625 22.2408 3.4125 21.5463 4.668 21.5283C5.85 21.5088 6.693 22.6158 6.975 23.0658C8.325 25.3338 10.482 24.6963 11.343 24.3033C11.475 23.3283 11.868 22.6728 12.3 22.2978C8.9625 21.9228 5.475 20.6283 5.475 14.8908C5.475 13.2588 6.0555 11.9103 7.0125 10.8588C6.8625 10.4838 6.3375 8.94628 7.1625 6.88378C7.1625 6.88378 8.418 6.49078 11.2875 8.42278C12.5086 8.08387 13.7703 7.9133 15.0375 7.91578C16.3125 7.91578 17.5875 8.08378 18.7875 8.42128C21.6555 6.47128 22.9125 6.88528 22.9125 6.88528C23.7375 8.94778 23.2125 10.4853 23.0625 10.8603C24.018 11.9103 24.6 13.2408 24.6 14.8908C24.6 20.6478 21.0945 21.9228 17.757 22.2978C18.3 22.7658 18.7695 23.6658 18.7695 25.0728C18.7695 27.0783 18.75 28.6908 18.75 29.1978C18.75 29.5908 19.032 30.0588 19.782 29.9088C22.7595 28.9035 25.3469 26.9898 27.1799 24.437C29.0128 21.8842 29.9991 18.821 30 15.6783C30 7.39078 23.2875 0.678284 15 0.678284Z"
        fill="#4caf50" />
</svg>