<svg width="21" height="21" viewBox="0 0 21 21" fill="none" xmlns="http://www.w3.org/2000/svg">
    <path
        d="M9 18.0093V12.7593M9 12.7593C9.51795 12.7593 10.0206 12.6937 10.5 12.5703M9 12.7593C8.48205 12.7593 7.97943 12.6937 7.5 12.5703M11.25 20.0487C10.5212 20.187 9.76904 20.2593 9 20.2593C8.23096 20.2593 7.47882 20.187 6.75 20.0487M10.5 22.4313C10.007 22.4828 9.50661 22.5093 9 22.5093C8.49339 22.5093 7.99296 22.4828 7.5 22.4313M11.25 18.0093V17.8176C11.25 16.8347 11.9083 15.9943 12.7585 15.501C14.9955 14.203 16.5 11.7818 16.5 9.00928C16.5 4.86714 13.1421 1.50928 9 1.50928C4.85786 1.50928 1.5 4.86714 1.5 9.00928C1.5 11.7818 3.00446 14.203 5.24155 15.501C6.09173 15.9943 6.75 16.8347 6.75 17.8176V18.0093"
        stroke="#4F46E5" stroke-width="1.5" stroke-linecap="round" stroke-linejoin="round" />
</svg>