<svg width="22" height="22" viewBox="0 0 22 22" fill="none" xmlns="http://www.w3.org/2000/svg">
<path fill-rule="evenodd" clip-rule="evenodd" d="M18.9017 3.10763C17.4372 1.64316 15.0628 1.64316 13.5984 3.10763L9.09835 7.60763C7.63388 9.07209 7.63388 11.4465 9.09835 12.9109C9.40922 13.2218 9.75977 13.4658 10.133 13.6441C10.5068 13.8227 10.665 14.2704 10.4865 14.6441C10.3079 15.0179 9.86021 15.1762 9.48645 14.9976C8.96169 14.7469 8.47063 14.4045 8.03769 13.9716C5.98744 11.9213 5.98744 8.59722 8.03769 6.54697L12.5377 2.04697C14.5879 -0.00328583 17.9121 -0.00328583 19.9623 2.04697C22.0126 4.09722 22.0126 7.42133 19.9623 9.47159L18.2053 11.2286C17.9124 11.5215 17.4376 11.5215 17.1447 11.2286C16.8518 10.9357 16.8518 10.4608 17.1447 10.1679L18.9017 8.41093C20.3661 6.94646 20.3661 4.57209 18.9017 3.10763ZM11.5135 7.37441C11.6921 7.00065 12.1398 6.8424 12.5135 7.02095C13.0383 7.27163 13.5294 7.61403 13.9623 8.04697C16.0126 10.0972 16.0126 13.4213 13.9623 15.4716L9.46231 19.9716C7.41206 22.0218 4.08794 22.0218 2.03769 19.9716C-0.0125632 17.9213 -0.0125632 14.5972 2.03769 12.547L3.79466 10.79C4.08755 10.4971 4.56243 10.4971 4.85532 10.79C5.14821 11.0829 5.14821 11.5578 4.85532 11.8507L3.09835 13.6076C1.63388 15.0721 1.63388 17.4465 3.09835 18.9109C4.56282 20.3754 6.93718 20.3754 8.40165 18.9109L12.9017 14.4109C14.3661 12.9465 14.3661 10.5721 12.9017 9.10763C12.5908 8.79676 12.2402 8.55275 11.867 8.37444C11.4932 8.1959 11.335 7.74817 11.5135 7.37441Z" fill="#E11D48"/>
</svg>
