<svg width="30" height="31" viewBox="0 0 30 31" fill="none" xmlns="http://www.w3.org/2000/svg">
    <path
        d="M15 0.9375C6.7 0.9375 0 7.6375 0 15.9375C0 24.2375 6.7 30.9375 15 30.9375C23.3 30.9375 30 24.2375 30 15.9375C30 7.6375 23.3 0.9375 15 0.9375ZM6.7 6.4375C7.1 6.1375 7.6 5.9375 8 5.9375C8.4 5.9375 9 6.1375 9.3 6.4375C9.6 6.8375 9.8 7.2375 9.8 7.7375C9.8 8.2375 9.6 8.7375 9.2 9.0375C9 9.4375 8.5 9.6375 8 9.6375C7.5 9.6375 7 9.4375 6.7 9.1375C6.4 8.7375 6.2 8.2375 6.2 7.7375C6.2 7.2375 6.4 6.8375 6.7 6.4375ZM9.9 22.5375H6.2V11.0375H9.9V22.5375ZM23.8 22.5375H20.1V16.4375C20.1 12.7375 15.7 13.0375 15.7 16.4375V22.5375H12.1V11.0375H15.8V12.5375C17.3 9.7375 23.9 9.5375 23.9 15.2375V22.5375H23.8Z"
        fill="#4f46e5" />
</svg>