<svg width="21" height="21" viewBox="0 0 21 21" fill="none" xmlns="http://www.w3.org/2000/svg">
<path d="M13.25 5.10305C13.25 4.7479 13.4361 4.42688 13.6512 4.14431C13.8721 3.85421 14 3.51011 14 3.14111C14 2.10558 12.9926 1.26611 11.75 1.26611C10.5074 1.26611 9.5 2.10558 9.5 3.14111C9.5 3.51011 9.62791 3.85421 9.8488 4.14431C10.064 4.42688 10.25 4.7479 10.25 5.10305V5.10305C10.25 5.46433 9.95416 5.75608 9.59303 5.74568C8.18939 5.70525 6.80084 5.60456 5.42989 5.44611C5.61626 7.05887 5.72269 8.69598 5.74511 10.3534C5.75007 10.7193 5.45293 11.0161 5.08694 11.0161V11.0161C4.73178 11.0161 4.41076 10.8301 4.1282 10.6149C3.8381 10.394 3.494 10.2661 3.125 10.2661C2.08947 10.2661 1.25 11.2735 1.25 12.5161C1.25 13.7588 2.08947 14.7661 3.125 14.7661C3.494 14.7661 3.8381 14.6382 4.1282 14.4173C4.41076 14.2022 4.73178 14.0161 5.08694 14.0161V14.0161C5.39613 14.0161 5.64157 14.2769 5.6189 14.5852C5.49306 16.2973 5.27742 17.9843 4.97668 19.6417C6.49458 19.8318 8.03451 19.951 9.59306 19.9958C9.95424 20.0062 10.2501 19.7144 10.2501 19.3531V19.3531C10.2501 18.9979 10.0641 18.6769 9.84891 18.3944C9.62803 18.1043 9.50012 17.7602 9.50012 17.3912C9.50012 16.3556 10.5075 15.5162 11.7501 15.5162C12.9928 15.5162 14.0001 16.3556 14.0001 17.3912C14.0001 17.7602 13.8722 18.1043 13.6513 18.3944C13.4362 18.6769 13.2501 18.9979 13.2501 19.3531V19.3531C13.2501 19.686 13.5281 19.9518 13.8605 19.9323C15.6992 19.8242 17.5102 19.6126 19.2876 19.3033C19.5571 17.7551 19.7523 16.1813 19.8696 14.5859C19.8923 14.2772 19.6466 14.0162 19.3371 14.0162V14.0162C18.9819 14.0162 18.6609 14.2022 18.3783 14.4174C18.0882 14.6382 17.7441 14.7662 17.3751 14.7662C16.3396 14.7662 15.5001 13.7588 15.5001 12.5162C15.5001 11.2735 16.3396 10.2662 17.3751 10.2662C17.7441 10.2662 18.0882 10.3941 18.3783 10.615C18.6609 10.8301 18.9819 11.0162 19.3371 11.0162V11.0162C19.7034 11.0162 20.0008 10.7192 19.9959 10.3529C19.9713 8.54024 19.8463 6.75184 19.6261 4.99309C17.7403 5.33527 15.816 5.56726 13.8603 5.68217C13.528 5.70169 13.25 5.43591 13.25 5.10305V5.10305Z" stroke="#4F46E5" stroke-width="1.5" stroke-linecap="round" stroke-linejoin="round"/>
</svg>
